<?xml version="1.0" encoding="UTF-8"?>
<svg xmlns="http://www.w3.org/2000/svg" xmlns:xlink="http://www.w3.org/1999/xlink" width="50px" height="50px" viewBox="0 0 50 50" version="1.1">
<g id="surface1">
<path style=" stroke:none;fill-rule:evenodd;fill:rgb(22.745098%,34.509804%,60.784314%);fill-opacity:1;" d="M 22.210938 37.550781 L 27.246094 37.550781 L 27.246094 25.371094 L 30.601562 25.371094 L 31.046875 21.175781 L 27.246094 21.175781 L 27.25 19.074219 C 27.25 17.980469 27.355469 17.390625 28.925781 17.390625 L 31.023438 17.390625 L 31.023438 13.195312 L 27.664062 13.195312 C 23.632812 13.195312 22.210938 15.230469 22.210938 18.65625 L 22.210938 21.175781 L 19.699219 21.175781 L 19.699219 25.371094 L 22.210938 25.371094 Z M 25.375 47.761719 C 13.007812 47.761719 2.984375 37.738281 2.984375 25.375 C 2.984375 13.007812 13.007812 2.984375 25.375 2.984375 C 37.738281 2.984375 47.761719 13.007812 47.761719 25.375 C 47.761719 37.738281 37.738281 47.761719 25.375 47.761719 Z M 25.375 47.761719 "/>
</g>
</svg>
