<?xml version="1.0" encoding="UTF-8"?>
<svg xmlns="http://www.w3.org/2000/svg" xmlns:xlink="http://www.w3.org/1999/xlink" width="50px" height="50px" viewBox="0 0 50 50" version="1.1">
<defs>
<radialGradient id="radial0" gradientUnits="userSpaceOnUse" cx="50.1582" cy="15.1047" fx="50.1582" fy="15.1047" r="684.4449" gradientTransform="matrix(0.00511093,-0.0975195,0.0828906,0.00434429,1.171904,48.710996)">
<stop offset="0" style="stop-color:rgb(99.607843%,83.529412%,46.27451%);stop-opacity:1;"/>
<stop offset="0.2634" style="stop-color:rgb(95.686275%,44.313725%,20%);stop-opacity:1;"/>
<stop offset="0.6091" style="stop-color:rgb(73.72549%,18.823529%,50.588235%);stop-opacity:1;"/>
<stop offset="1" style="stop-color:rgb(29.803922%,38.823529%,82.352941%);stop-opacity:1;"/>
</radialGradient>
</defs>
<g id="surface1">
<path style=" stroke:none;fill-rule:nonzero;fill:url(#radial0);" d="M 1.835938 24.421875 L 1.835938 25.671875 C 2.15625 37.625 11.789062 47.226562 23.242188 48.125 L 26.769531 48.125 C 38.289062 47.214844 47.753906 37.527344 48.066406 25.652344 L 48.066406 24.421875 C 47.753906 12.335938 37.960938 2.53125 26.160156 1.921875 C 13.46875 1.28125 2.1875 11.464844 1.835938 24.421875 Z M 1.835938 24.421875 "/>
<path style=" stroke:none;fill-rule:nonzero;fill:rgb(100%,100%,100%);fill-opacity:1;" d="M 25.058594 13.507812 C 28.742188 13.507812 29.179688 13.515625 30.636719 13.585938 C 31.984375 13.644531 32.703125 13.878906 33.195312 14.0625 C 33.839844 14.316406 34.296875 14.621094 34.773438 15.109375 C 35.253906 15.597656 35.554688 16.066406 35.8125 16.71875 C 35.996094 17.21875 36.21875 17.960938 36.289062 19.328125 C 36.359375 20.8125 36.367188 21.25 36.367188 25 C 36.367188 28.75 36.359375 29.1875 36.289062 30.675781 C 36.230469 32.039062 36.007812 32.785156 35.8125 33.28125 C 35.554688 33.9375 35.265625 34.40625 34.773438 34.890625 C 34.296875 35.382812 33.835938 35.683594 33.195312 35.9375 C 32.703125 36.132812 31.972656 36.359375 30.636719 36.414062 C 29.179688 36.484375 28.742188 36.492188 25.058594 36.492188 C 21.378906 36.492188 20.9375 36.484375 19.484375 36.414062 C 18.132812 36.355469 17.414062 36.125 16.925781 35.9375 C 16.28125 35.683594 15.820312 35.382812 15.34375 34.890625 C 14.863281 34.40625 14.5625 33.9375 14.308594 33.28125 C 14.121094 32.78125 13.898438 32.039062 13.828125 30.675781 C 13.761719 29.191406 13.75 28.75 13.75 25 C 13.75 21.25 13.761719 20.8125 13.828125 19.328125 C 13.886719 17.960938 14.113281 17.21875 14.308594 16.71875 C 14.5625 16.066406 14.855469 15.597656 15.34375 15.109375 C 15.820312 14.621094 16.28125 14.316406 16.925781 14.0625 C 17.414062 13.867188 18.144531 13.644531 19.484375 13.585938 C 20.9375 13.523438 21.375 13.507812 25.058594 13.507812 M 25.058594 10.976562 C 21.308594 10.976562 20.839844 10.996094 19.375 11.066406 C 17.910156 11.132812 16.90625 11.367188 16.027344 11.71875 C 15.117188 12.082031 14.347656 12.558594 13.585938 13.339844 C 12.8125 14.121094 12.34375 14.902344 11.992188 15.832031 C 11.652344 16.71875 11.417969 17.742188 11.347656 19.238281 C 11.28125 20.734375 11.269531 21.210938 11.269531 25.019531 C 11.269531 28.828125 11.289062 29.308594 11.347656 30.800781 C 11.417969 32.296875 11.652344 33.3125 11.992188 34.210938 C 12.34375 35.125 12.8125 35.917969 13.585938 36.699219 C 14.355469 37.480469 15.117188 37.960938 16.027344 38.320312 C 16.90625 38.671875 17.910156 38.90625 19.375 38.976562 C 20.851562 39.042969 21.320312 39.0625 25.058594 39.0625 C 28.796875 39.0625 29.277344 39.042969 30.742188 38.976562 C 32.207031 38.90625 33.210938 38.671875 34.09375 38.320312 C 35 37.960938 35.773438 37.480469 36.53125 36.699219 C 37.304688 35.917969 37.773438 35.136719 38.125 34.210938 C 38.46875 33.320312 38.703125 32.296875 38.769531 30.800781 C 38.839844 29.308594 38.847656 28.828125 38.847656 25.019531 C 38.847656 21.210938 38.828125 20.734375 38.769531 19.238281 C 38.703125 17.746094 38.46875 16.730469 38.125 15.832031 C 37.773438 14.914062 37.304688 14.121094 36.53125 13.339844 C 35.761719 12.558594 35 12.082031 34.09375 11.71875 C 33.210938 11.367188 32.207031 11.132812 30.742188 11.066406 C 29.277344 10.996094 28.796875 10.976562 25.058594 10.976562 Z M 25.058594 10.976562 "/>
<path style=" stroke:none;fill-rule:nonzero;fill:rgb(100%,100%,100%);fill-opacity:1;" d="M 25.058594 17.804688 C 21.144531 17.804688 17.980469 21.023438 17.980469 25.011719 C 17.980469 28.996094 21.152344 32.21875 25.058594 32.21875 C 28.964844 32.21875 32.140625 28.996094 32.140625 25.011719 C 32.140625 21.023438 28.964844 17.804688 25.058594 17.804688 Z M 25.058594 29.6875 C 22.519531 29.6875 20.460938 27.597656 20.460938 25.011719 C 20.460938 22.421875 22.519531 20.332031 25.058594 20.332031 C 27.597656 20.332031 29.660156 22.421875 29.660156 25.011719 C 29.660156 27.597656 27.597656 29.6875 25.058594 29.6875 Z M 25.058594 29.6875 "/>
<path style=" stroke:none;fill-rule:nonzero;fill:rgb(100%,100%,100%);fill-opacity:1;" d="M 34.070312 17.519531 C 34.070312 16.59375 33.332031 15.839844 32.421875 15.839844 C 31.511719 15.839844 30.773438 16.59375 30.773438 17.519531 C 30.773438 18.445312 31.511719 19.199219 32.421875 19.199219 C 33.332031 19.199219 34.070312 18.445312 34.070312 17.519531 Z M 34.070312 17.519531 "/>
</g>
</svg>
