<?xml version="1.0" encoding="UTF-8"?>
<svg xmlns="http://www.w3.org/2000/svg" xmlns:xlink="http://www.w3.org/1999/xlink" width="50px" height="50px" viewBox="0 0 50 50" version="1.1">
<g id="surface1">
<path style=" stroke:none;fill-rule:evenodd;fill:rgb(11.372549%,63.137255%,94.901961%);fill-opacity:1;" d="M 50 25 C 50 38.808594 38.808594 50 25 50 C 11.191406 50 0 38.808594 0 25 C 0 11.191406 11.191406 0 25 0 C 38.808594 0 50 11.191406 50 25 Z M 50 25 "/>
<path style=" stroke:none;fill-rule:nonzero;fill:rgb(100%,100%,100%);fill-opacity:1;" d="M 20.425781 38.1875 C 31.511719 38.1875 37.574219 29 37.574219 21.039062 C 37.574219 20.773438 37.574219 20.511719 37.5625 20.261719 C 38.738281 19.414062 39.761719 18.351562 40.574219 17.136719 C 39.5 17.613281 38.335938 17.9375 37.113281 18.085938 C 38.363281 17.335938 39.3125 16.164062 39.761719 14.75 C 38.601562 15.4375 37.3125 15.9375 35.9375 16.210938 C 34.835938 15.039062 33.273438 14.3125 31.539062 14.3125 C 28.210938 14.3125 25.511719 17.011719 25.511719 20.335938 C 25.511719 20.8125 25.5625 21.273438 25.675781 21.710938 C 20.664062 21.460938 16.226562 19.0625 13.25 15.414062 C 12.738281 16.300781 12.4375 17.335938 12.4375 18.4375 C 12.4375 20.523438 13.5 22.375 15.125 23.449219 C 14.136719 23.425781 13.210938 23.148438 12.398438 22.699219 L 12.398438 22.773438 C 12.398438 25.699219 14.476562 28.125 17.238281 28.6875 C 16.738281 28.824219 16.199219 28.898438 15.648438 28.898438 C 15.261719 28.898438 14.886719 28.863281 14.511719 28.789062 C 15.273438 31.1875 17.5 32.925781 20.136719 32.976562 C 18.074219 34.585938 15.476562 35.550781 12.648438 35.550781 C 12.164062 35.550781 11.6875 35.523438 11.210938 35.460938 C 13.851562 37.1875 17.023438 38.1875 20.425781 38.1875 "/>
</g>
</svg>
